<?xml version="1.0" encoding="UTF-8" standalone="no"?>
<!-- Created with Inkscape (http://www.inkscape.org/) -->

<svg
   xmlns:dc="http://purl.org/dc/elements/1.1/"
   xmlns:cc="http://creativecommons.org/ns#"
   xmlns:rdf="http://www.w3.org/1999/02/22-rdf-syntax-ns#"
   xmlns:svg="http://www.w3.org/2000/svg"
   xmlns="http://www.w3.org/2000/svg"
   xmlns:sodipodi="http://sodipodi.sourceforge.net/DTD/sodipodi-0.dtd"
   xmlns:inkscape="http://www.inkscape.org/namespaces/inkscape"
   width="765"
   height="990"
   id="svg2"
   version="1.1"
   inkscape:version="0.48.3.1 r9886"
   sodipodi:docname="flechas.svg"
   inkscape:export-filename="/home/dav/robotic-sensor-network/robotic-sensor-network/pruebas/VisionPC-SeguimientoObjetos/ObjectTracking/flechas.png"
   inkscape:export-xdpi="99.949997"
   inkscape:export-ydpi="99.949997">
  <defs
     id="defs4" />
  <sodipodi:namedview
     id="base"
     pagecolor="#ffffff"
     bordercolor="#666666"
     borderopacity="1.0"
     inkscape:pageopacity="0.0"
     inkscape:pageshadow="2"
     inkscape:zoom="0.35"
     inkscape:cx="137.96081"
     inkscape:cy="585.04263"
     inkscape:document-units="px"
     inkscape:current-layer="layer1"
     showgrid="false"
     inkscape:window-width="977"
     inkscape:window-height="747"
     inkscape:window-x="220"
     inkscape:window-y="24"
     inkscape:window-maximized="0"
     units="cm" />
  <metadata
     id="metadata7">
    <rdf:RDF>
      <cc:Work
         rdf:about="">
        <dc:format>image/svg+xml</dc:format>
        <dc:type
           rdf:resource="http://purl.org/dc/dcmitype/StillImage" />
        <dc:title></dc:title>
      </cc:Work>
    </rdf:RDF>
  </metadata>
  <g
     inkscape:label="Layer 1"
     inkscape:groupmode="layer"
     id="layer1"
     transform="translate(0,-62.360838)">
    <g
       id="g3028"
       transform="translate(-106.01165,-2.3423007)">
      <rect
         transform="matrix(0,-1,1,0,0,0)"
         y="241.8851"
         x="-508.79446"
         height="148.67189"
         width="255.0491"
         id="rect2985"
         style="fill:#000000;fill-opacity:1;stroke:none" />
      <path
         transform="matrix(0,-0.94673041,1.4231435,0,294.56177,598.7487)"
         inkscape:transform-center-x="-22.999558"
         d="m 296.78682,114.81032 0,-99.590998 0,-99.590996 86.24833,49.795501 86.24834,49.795498 -86.24834,49.795501 z"
         inkscape:randomized="0"
         inkscape:rounded="0"
         inkscape:flatsided="false"
         sodipodi:arg2="3.1415927"
         sodipodi:arg1="2.0943951"
         sodipodi:r2="57.49889"
         sodipodi:r1="114.99778"
         sodipodi:cy="15.219325"
         sodipodi:cx="354.28571"
         sodipodi:sides="3"
         id="path2987"
         style="fill:#000000;fill-opacity:1;stroke:none"
         sodipodi:type="star" />
    </g>
    <g
       transform="translate(208.27407,-5.1994437)"
       id="g3032">
      <rect
         style="fill:#000000;fill-opacity:1;stroke:none"
         id="rect3034"
         width="255.0491"
         height="148.67189"
         x="-508.79446"
         y="241.8851"
         transform="matrix(0,-1,1,0,0,0)" />
      <path
         sodipodi:type="star"
         style="fill:#000000;fill-opacity:1;stroke:none"
         id="path3036"
         sodipodi:sides="3"
         sodipodi:cx="354.28571"
         sodipodi:cy="15.219325"
         sodipodi:r1="114.99778"
         sodipodi:r2="57.49889"
         sodipodi:arg1="2.0943951"
         sodipodi:arg2="3.1415927"
         inkscape:flatsided="false"
         inkscape:rounded="0"
         inkscape:randomized="0"
         d="m 296.78682,114.81032 0,-99.590998 0,-99.590996 86.24833,49.795501 86.24834,49.795498 -86.24834,49.795501 z"
         inkscape:transform-center-x="-22.999558"
         transform="matrix(0,-0.94673041,1.4231435,0,294.56177,598.7487)" />
    </g>
    <path
       transform="matrix(0.66176472,0,0,0.66176472,588.20496,-20.449395)"
       d="m -64.649761,422.29428 a 34.345188,34.345188 0 1 1 -68.690379,0 34.345188,34.345188 0 1 1 68.690379,0 z"
       sodipodi:ry="34.345188"
       sodipodi:rx="34.345188"
       sodipodi:cy="422.29428"
       sodipodi:cx="-98.994949"
       id="path3038"
       style="fill:#ffffff;fill-opacity:1;stroke:none"
       sodipodi:type="arc" />
    <g
       transform="translate(-106.01165,406.22913)"
       id="g3040">
      <rect
         style="fill:#000000;fill-opacity:1;stroke:none"
         id="rect3042"
         width="255.0491"
         height="148.67189"
         x="-508.79446"
         y="241.8851"
         transform="matrix(0,-1,1,0,0,0)" />
      <path
         sodipodi:type="star"
         style="fill:#000000;fill-opacity:1;stroke:none"
         id="path3044"
         sodipodi:sides="3"
         sodipodi:cx="354.28571"
         sodipodi:cy="15.219325"
         sodipodi:r1="114.99778"
         sodipodi:r2="57.49889"
         sodipodi:arg1="2.0943951"
         sodipodi:arg2="3.1415927"
         inkscape:flatsided="false"
         inkscape:rounded="0"
         inkscape:randomized="0"
         d="m 296.78682,114.81032 0,-99.590998 0,-99.590996 86.24833,49.795501 86.24834,49.795498 -86.24834,49.795501 z"
         inkscape:transform-center-x="-22.999558"
         transform="matrix(0,-0.94673041,1.4231435,0,294.56177,598.7487)" />
    </g>
    <path
       transform="matrix(0.66176472,0,0,0.66176472,273.91924,390.97918)"
       d="m -64.649761,422.29428 a 34.345188,34.345188 0 1 1 -68.690379,0 34.345188,34.345188 0 1 1 68.690379,0 z"
       sodipodi:ry="34.345188"
       sodipodi:rx="34.345188"
       sodipodi:cy="422.29428"
       sodipodi:cx="-98.994949"
       id="path3046"
       style="fill:#ffffff;fill-opacity:1;stroke:none"
       sodipodi:type="arc" />
    <g
       id="g3048"
       transform="translate(208.27407,403.37198)">
      <rect
         transform="matrix(0,-1,1,0,0,0)"
         y="241.8851"
         x="-508.79446"
         height="148.67189"
         width="255.0491"
         id="rect3050"
         style="fill:#000000;fill-opacity:1;stroke:none" />
      <path
         transform="matrix(0,-0.94673041,1.4231435,0,294.56177,598.7487)"
         inkscape:transform-center-x="-22.999558"
         d="m 296.78682,114.81032 0,-99.590998 0,-99.590996 86.24833,49.795501 86.24834,49.795498 -86.24834,49.795501 z"
         inkscape:randomized="0"
         inkscape:rounded="0"
         inkscape:flatsided="false"
         sodipodi:arg2="3.1415927"
         sodipodi:arg1="2.0943951"
         sodipodi:r2="57.49889"
         sodipodi:r1="114.99778"
         sodipodi:cy="15.219325"
         sodipodi:cx="354.28571"
         sodipodi:sides="3"
         id="path3052"
         style="fill:#000000;fill-opacity:1;stroke:none"
         sodipodi:type="star" />
    </g>
    <path
       sodipodi:type="arc"
       style="fill:#ffffff;fill-opacity:1;stroke:none"
       id="path3054"
       sodipodi:cx="-98.994949"
       sodipodi:cy="422.29428"
       sodipodi:rx="34.345188"
       sodipodi:ry="34.345188"
       d="m -64.649761,422.29428 a 34.345188,34.345188 0 1 1 -68.690379,0 34.345188,34.345188 0 1 1 68.690379,0 z"
       transform="matrix(0.66176472,0,0,0.66176472,588.20496,388.12203)" />
    <path
       sodipodi:type="arc"
       style="fill:#ffffff;fill-opacity:1;stroke:none"
       id="path3056"
       sodipodi:cx="-98.994949"
       sodipodi:cy="422.29428"
       sodipodi:rx="34.345188"
       sodipodi:ry="34.345188"
       d="m -64.649761,422.29428 a 34.345188,34.345188 0 1 1 -68.690379,0 34.345188,34.345188 0 1 1 68.690379,0 z"
       transform="matrix(0.66176472,0,0,0.66176472,279.98016,478.71378)" />
    <path
       transform="matrix(0.66176472,0,0,0.66176472,590.90409,476.69347)"
       d="m -64.649761,422.29428 a 34.345188,34.345188 0 1 1 -68.690379,0 34.345188,34.345188 0 1 1 68.690379,0 z"
       sodipodi:ry="34.345188"
       sodipodi:rx="34.345188"
       sodipodi:cy="422.29428"
       sodipodi:cx="-98.994949"
       id="path3060"
       style="fill:#ffffff;fill-opacity:1;stroke:none"
       sodipodi:type="arc" />
    <path
       sodipodi:type="arc"
       style="fill:#ffffff;fill-opacity:1;stroke:none"
       id="path3062"
       sodipodi:cx="-98.994949"
       sodipodi:cy="422.29428"
       sodipodi:rx="34.345188"
       sodipodi:ry="34.345188"
       d="m -64.649761,422.29428 a 34.345188,34.345188 0 1 1 -68.690379,0 34.345188,34.345188 0 1 1 68.690379,0 z"
       transform="matrix(0.66176472,0,0,0.66176472,592.9244,553.46506)" />
  </g>
</svg>
